<svg id="Capa_1" enable-background="new 0 0 511.996 511.996" height="512" viewBox="0 0 511.996 511.996" width="512" xmlns="http://www.w3.org/2000/svg"><g><g><g><path d="m304.377 169.599 35.174 96.399 163.203 163.203c-24.862 25.228-50.023 50.161-74.98 75.296l-164.497-164.497h-20.326v-170.602l-23.09-23.003c-9.689-9.653-9.704-25.338-.033-35.009 9.658-9.658 25.318-9.658 34.976 0l34.369 34.369c6.745 6.744 11.934 14.883 15.204 23.844z" fill="#fee265"/><path d="m502.75 429.201-163.198-163.198-35.181-96.405c-3.268-8.965-8.448-17.101-15.199-23.841l-34.364-34.374c-4.837-4.826-11.157-7.234-17.488-7.234s-12.662 2.408-17.488 7.234c-4.504 4.504-6.901 10.308-7.202 16.198.43-.032.86-.043 1.29-.043 6.331 0 12.662 2.408 17.488 7.245l34.374 34.364c6.739 6.75 11.931 14.887 15.199 23.841l35.181 96.405 24.283 24.283c-17.225 17.268-34.459 34.527-51.714 51.775l96.921 96.921c9.867-7.75 16.209-19.778 16.209-33.257v-25.465c0-10.539 12.742-15.816 20.193-8.364l57.305 57.305z" fill="#fdd330"/><path d="m502.749 429.203-74.978 75.293-37.916-37.916 74.998-75.273z" fill="#7da2b0"/><path d="m502.749 429.203-23.389 23.389-37.855-37.855 23.348-23.43z" fill="#688d97"/><path d="m444.639 301.221-36.145-36.145c-6.745-6.745-14.883-11.934-23.844-15.204l-96.4-35.174-29.639-31.194c-25.132 25.478-50.516 50.704-75.768 76.063l31.405 31.405v93.069c0 11.259 8.755 20.848 20.007 21.248 11.813.42 21.521-9.032 21.521-20.751v22.318c0 11.468 9.296 20.764 20.764 20.764 11.468 0 20.764-9.296 20.764-20.764v10.647c0 11.259 8.755 20.848 20.007 21.248 11.813.42 21.521-9.031 21.521-20.75v11.115c0 11.468 9.296 20.764 20.764 20.764 11.468 0 20.764-9.296 20.764-20.764v-122.308l29.294 29.359c10.607 10.631 28.164 9.428 37.222-2.55 7.445-9.843 6.49-23.669-2.237-32.396z" fill="#eff5f6"/><path d="m444.639 301.222-36.146-36.146c-6.745-6.745-14.884-11.933-23.846-15.199l-96.393-35.179-29.64-31.194c-4.112 4.169-54.649 54.854-75.769 76.064l25.202 25.202 41.2-41.2c7.388-7.388 18.465-9.67 28.173-5.804l85.344 33.994c8.953 3.276 17.091 8.464 23.836 15.209l36.146 36.146c4.792 4.792 7.243 11.12 7.243 17.488 0 .895-.051 1.79-.153 2.686 6.501-.712 12.727-3.968 17.04-9.675 3.357-4.436 5.005-9.675 5.005-14.904.001-6.358-2.451-12.696-7.242-17.488z" fill="#deecf0"/><g><path d="m259.804 168.742-143.432-161.241-107.129 107.129 157.027 146.904c8.249 7.717 21.132 7.503 29.12-.485l63.576-63.576c7.843-7.844 8.211-20.443.838-28.731z" fill="#a9d8fc"/></g><g><path d="m258.964 197.474-25.637 25.637c7.844-7.844 8.21-20.448.844-28.73l-143.434-161.248 25.637-25.637 143.435 161.248c7.365 8.282 6.999 20.886-.845 28.73z" fill="#8dcafc"/></g><g><path d="m171.234 319.236c0 11.468 9.296 20.764 20.764 20.764h25.349c11.468 0 20.764-9.296 20.764-20.764 0-11.468-9.296-20.764-20.764-20.764h-25.349c-11.467 0-20.764 9.296-20.764 20.764z" fill="#fdd330"/><path d="m238.116 319.231c0 11.469-9.298 20.767-20.767 20.767h-23.884c11.469 0 20.767-9.298 20.767-20.767 0-5.729-2.322-10.921-6.084-14.672-3.751-3.762-8.954-6.084-14.683-6.084h23.884c5.729 0 10.931 2.322 14.683 6.084 3.763 3.751 6.084 8.943 6.084 14.672z" fill="#f8c52d"/></g><g><path d="m137.787 277.708c0 11.468 9.296 20.764 20.764 20.764h42.339c11.468 0 20.764-9.296 20.764-20.764 0-11.468-9.296-20.764-20.764-20.764h-42.339c-11.467 0-20.764 9.296-20.764 20.764z" fill="#fee265"/><path d="m221.649 277.709c0 11.469-9.287 20.766-20.756 20.766h-23.883c11.469 0 20.767-9.298 20.767-20.766 0-5.729-2.322-10.932-6.084-14.683-3.762-3.762-8.943-6.084-14.683-6.084h23.884c5.74 0 10.921 2.322 14.683 6.084 3.751 3.751 6.072 8.954 6.072 14.683z" fill="#fdd330"/></g><g><path d="m113.073 236.18c0 11.468 9.296 20.764 20.764 20.764h42.828c11.468 0 20.764-9.296 20.764-20.764 0-11.468-9.296-20.764-20.764-20.764h-42.828c-11.467 0-20.764 9.297-20.764 20.764z" fill="#fdd330"/><path d="m197.432 236.176c0 11.469-9.298 20.767-20.767 20.767h-23.884c11.469 0 20.767-9.298 20.767-20.767 0-5.729-2.322-10.921-6.084-14.672-3.762-3.762-8.943-6.084-14.683-6.084h23.884c5.74 0 10.921 2.322 14.683 6.084 3.763 3.751 6.084 8.942 6.084 14.672z" fill="#f8c52d"/></g><g><path d="m85.228 194.652c0 11.468 9.296 20.764 20.764 20.764h32.632c11.468 0 20.764-9.296 20.764-20.764 0-11.468-9.296-20.764-20.764-20.764h-32.632c-11.468.001-20.764 9.297-20.764 20.764z" fill="#fee265"/><path d="m159.393 194.653c0 11.469-9.298 20.766-20.766 20.766h-23.884c11.469 0 20.767-9.298 20.767-20.766 0-5.74-2.322-10.921-6.084-14.683-3.751-3.762-8.954-6.084-14.683-6.084h23.884c5.729 0 10.931 2.322 14.683 6.084 3.761 3.763 6.083 8.944 6.083 14.683z" fill="#fdd330"/></g></g></g><g><path d="m508.057 423.897-73.773-73.772c7.36-1.669 13.957-5.879 18.573-11.984 9.651-12.759 8.397-30.911-2.914-42.224l-36.146-36.145c-7.468-7.467-16.657-13.327-26.576-16.946l-55.535-20.264-20.263-55.535c-3.621-9.921-9.481-19.111-16.946-26.577l-34.167-34.167-.202-.202c-6.088-6.088-14.182-9.441-22.792-9.441-8.609 0-16.703 3.353-22.793 9.442-.074.074-.14.155-.214.23l-92.333-103.797c-2.752-3.094-7.492-3.373-10.588-.619-3.096 2.753-3.372 7.494-.619 10.588l105.874 119.02c1.481 1.666 3.539 2.515 5.606 2.515 1.772 0 3.553-.625 4.981-1.896 3.096-2.753 3.372-7.494.619-10.588l-3.533-3.972c.261-.299.531-.592.813-.875 3.256-3.255 7.583-5.047 12.186-5.047 4.604 0 8.931 1.792 12.197 5.06l34.356 34.356c5.931 5.931 10.586 13.231 13.462 21.112l15.935 43.672-20.79-7.586-20.22-21.28c1.236-8.106-1.018-16.664-6.848-23.219l-13.805-15.518c-2.752-3.094-7.491-3.373-10.589-.619-3.095 2.753-3.371 7.494-.618 10.588l13.804 15.518c4.728 5.314 4.49 13.416-.539 18.444l-4.593 4.593c-3.491-6.801-9.706-16.806-20.384-28.68-2.771-3.082-7.513-3.331-10.592-.562-3.08 2.77-3.332 7.512-.563 10.591 12.773 14.205 18.19 24.896 20.266 29.924l-8.078 8.078-11.872-11.692c-2.952-2.906-7.7-2.871-10.606.081-2.906 2.951-2.87 7.7.081 10.606l11.79 11.612-14.673 14.673c.317-1.691.49-3.432.49-5.213 0-15.584-12.679-28.264-28.264-28.264h-13.093c2.113-3.958 3.315-8.472 3.315-13.264 0-15.585-12.68-28.264-28.265-28.264h-32.632c-8.187 0-15.569 3.502-20.735 9.083l-13.49-12.621c-3.025-2.83-7.771-2.671-10.601.353-2.83 3.025-2.672 7.771.353 10.601l16.702 15.625c-.318 1.694-.492 3.438-.492 5.222 0 15.584 12.679 28.264 28.264 28.264h2.897c-2.113 3.958-3.315 8.472-3.315 13.264 0 15.507 12.554 28.132 28.032 28.258-2.115 3.959-3.318 8.476-3.318 13.27 0 15.584 12.679 28.264 28.264 28.264h8.499c-2.113 3.958-3.315 8.472-3.315 13.264 0 15.585 12.679 28.264 28.264 28.264h14.751v36.541c0 15.315 12.22 28.21 27.24 28.744 5.116.188 10.043-.979 14.405-3.333 1.314 14.373 13.437 25.668 28.146 25.668 5.999 0 11.568-1.879 16.149-5.08 4.481 9.249 13.716 15.827 24.354 16.205 6.163.228 12.083-1.518 17.048-4.953 4.557 9.506 14.276 16.086 25.504 16.086 3.139 0 6.157-.522 8.981-1.471l53.896 53.894c1.465 1.464 3.385 2.197 5.304 2.197s3.839-.732 5.304-2.197c2.929-2.929 2.929-7.678 0-10.606l-32.625-32.625 28.952-29.057c2.924-2.934 2.915-7.683-.019-10.606-2.935-2.924-7.684-2.916-10.606.02l-28.933 29.038-8.648-8.648c4.152-4.921 6.662-11.271 6.662-18.199v-104.174l66.399 66.371-10.122 10.16c-2.923 2.934-2.914 7.683.02 10.606 1.464 1.458 3.379 2.187 5.294 2.187 1.924 0 3.848-.736 5.313-2.207l10.102-10.14 32.583 32.583c1.465 1.464 3.385 2.197 5.304 2.197s3.839-.732 5.304-2.197c2.927-2.928 2.927-7.677-.001-10.606zm-415.329-229.244c0-7.314 5.95-13.264 13.264-13.264h32.632c7.314 0 13.265 5.95 13.265 13.264 0 7.313-5.95 13.264-13.265 13.264h-32.632c-7.314-.001-13.264-5.951-13.264-13.264zm27.845 41.527c0-7.313 5.95-13.264 13.264-13.264h42.828c7.313 0 13.264 5.95 13.264 13.264 0 7.313-5.95 13.264-13.264 13.264h-42.828c-7.314 0-13.264-5.95-13.264-13.264zm24.714 41.528c0-7.313 5.95-13.264 13.264-13.264h42.34c7.313 0 13.264 5.95 13.264 13.264 0 7.313-5.95 13.264-13.264 13.264h-42.34c-7.314 0-13.264-5.95-13.264-13.264zm33.447 41.528c0-7.313 5.95-13.264 13.264-13.264h25.35c7.313 0 13.264 5.95 13.264 13.264s-5.95 13.264-13.264 13.264h-25.35c-7.313 0-13.264-5.95-13.264-13.264zm206.936-17.725c-2.145-2.148-5.371-2.793-8.176-1.633s-4.634 3.896-4.634 6.931v122.307c0 7.314-5.95 13.264-13.265 13.264-7.313 0-13.264-5.95-13.264-13.264v-48.123c0-4.142-3.357-7.5-7.5-7.5s-7.5 3.358-7.5 7.5v37.008c0 3.632-1.439 7.022-4.055 9.545-2.611 2.521-6.055 3.846-9.699 3.709-7.043-.25-12.773-6.42-12.773-13.753v-50.766c0-4.142-3.357-7.5-7.5-7.5s-7.5 3.358-7.5 7.5v40.119c0 7.314-5.95 13.264-13.264 13.264s-13.265-5.95-13.265-13.264v-50.432c0-4.142-3.357-7.5-7.5-7.5s-7.5 3.358-7.5 7.5v28.114c0 3.632-1.439 7.022-4.055 9.546-2.612 2.522-6.083 3.837-9.699 3.71-7.043-.25-12.773-6.42-12.773-13.753v-36.886c13.502-2.12 23.862-13.832 23.862-27.919 0-12.857-8.633-23.729-20.405-27.144 2.504-4.217 3.948-9.134 3.948-14.384 0-10.758-6.043-20.13-14.913-24.904l50.026-50.027c.398-.398.778-.808 1.147-1.224l17.399 18.311c.798.839 1.779 1.483 2.866 1.879l96.4 35.175c7.879 2.875 15.18 7.53 21.11 13.461l36.146 36.145c6.047 6.046 6.717 15.749 1.558 22.569-3.007 3.977-7.585 6.454-12.56 6.794-4.987.341-9.849-1.488-13.37-5.018z"/><path d="m14.367 109.152c-3.025-2.83-7.771-2.671-10.601.353-2.83 3.025-2.672 7.771.353 10.601l31.176 29.166c1.446 1.353 3.286 2.023 5.122 2.023 2.004 0 4.002-.798 5.479-2.376 2.83-3.025 2.672-7.771-.353-10.601z"/></g></g></svg>