<svg id="Capa_1" enable-background="new 0 0 512 512" height="512" viewBox="0 0 512 512" width="512" xmlns="http://www.w3.org/2000/svg"><g><g><path d="m205.57 420.188s-39.622-30.736-40.383-96.39c-.757-65.336-8.829-83.247 32.794-81.481 0 0-4.288-74.166 16.649-78.454 14.836-3.039 23.208 4.036 23.208 4.036s-4.036-35.821 18.668-34.812 20.181 31.785 20.181 31.785 32.794-26.74 38.344 15.136c0 0 36.326-17.658 37.335 15.64 1.009 33.299 0 136.222 0 136.222s-1.514 71.643-35.317 83.247v32.29l-111.501.205z" fill="#ffdcd4"/><path d="m205.886 446.23h107.969v46.103h-107.969z" fill="#e58dbb"/><g><path d="m455.761 135.565s6.701 48.049-37.101 94.054c-43.59 45.782-50.09 63.643-77.738 34.315 0 0-47.104 54.284-64.507 43.119-12.332-7.912-13.356-18.467-13.356-18.467s-21.389 27.546-36.439 11.517c-15.05-16.028 7.478-35.65 7.478-35.65s-40.777-3.614-16.349-36.377c0 0-37.093-12.291-15.309-36.045s91.976-94.387 91.976-94.387 49.421-48.619 80.678-33.836l21.802-22.373 77.396 75.142z" fill="#ffdcd4"/><path d="m397.913 45.395h104.455v41.327h-104.455z" fill="#e58dbb" transform="matrix(-.716 -.698 .698 -.716 726.429 427.522)"/></g><g><path d="m58.782 136.599s-6.251 48.11 37.979 93.702c44.016 45.372 50.683 63.171 78.056 33.586 0 0 47.61 53.841 64.908 42.513 12.257-8.027 13.182-18.591 13.182-18.591s21.646 27.344 36.546 11.176c14.899-16.169-7.811-35.578-7.811-35.578s40.742-3.996 16.008-36.528c0 0 36.976-12.638 14.971-36.187s-92.855-93.523-92.855-93.523-49.874-48.154-80.991-33.079l-22.01-22.168-76.69 75.863z" fill="#ffdcd4"/><path d="m11.524 46.38h104.455v41.327h-104.455z" fill="#e58dbb" transform="matrix(.71 -.705 .705 .71 -28.726 64.385)"/></g></g><g><path d="m509.045 88.657-77.011-77.021c-1.892-1.892-4.459-2.956-7.135-2.956-2.676 0-5.243 1.063-7.135 2.956l-47.254 47.253c-30.045-2.711-59.001 7.599-80.1 28.708l-30.02 30.02-46.453-38.765c-.14-.117-.283-.23-.429-.339-29.795-22.241-61.257-23.423-75.541-22.542l-43.72-43.72c-3.941-3.94-10.329-3.942-14.27 0l-77.021 77.011c-1.893 1.892-2.956 4.459-2.956 7.135s1.063 5.243 2.956 7.136l47.253 47.253c-2.712 30.046 7.601 59.002 28.708 80.11 0 0 74.811 74.783 75.001 74.948l5.019 55.592c.016.181.037.362.064.541 5.339 36.811 26.743 59.885 37.473 69.359v61.833c0 5.573 4.518 10.091 10.091 10.091h8.878c5.573 0 10.091-4.518 10.091-10.091 0-5.163-3.877-9.419-8.878-10.019v-19.757h88.736v19.685h-.644c-5.573 0-10.091 4.518-10.091 10.091s4.518 10.091 10.091 10.091h10.734c5.573 0 10.091-4.518 10.091-10.091v-66.826c23.164-19.325 36.346-47.091 36.346-76.944v-41.376c.659-.431 80.136-84.964 80.136-84.964.259-.276.502-.566.728-.869 22.247-29.803 23.435-61.256 22.552-75.541l43.711-43.72c3.939-3.943 3.939-10.331-.001-14.272zm-421.934-55.001 13.916 13.916-62.746 62.746-13.92-13.92zm6.076 182.969c-17.783-17.783-25.95-42.621-22.407-68.145.435-3.132-.623-6.287-2.86-8.523l-15.369-15.368 62.746-62.746 11.731 11.731c2.192 2.192 5.267 3.253 8.345 2.883 8.387-1.014 37.872-2.692 65.848 18.07l43.649 36.424c-2.85 1.563-5.467 3.649-7.742 6.224-1.346 1.512-5.848 6.991-7.5 15.848-3.014-1.038-6.216-1.582-9.504-1.582-15.824 0-28.697 12.661-28.697 28.224v54.926c-4.465-.52-9.415-.186-13.836.949-.167.042.165-.051 0 0-1.013.316-2.274.745-3.282 1.138l-29.705-29.97c-3.923-3.958-10.312-3.987-14.27-.064s-3.986 10.312-.064 14.27l27.371 27.615c-8.663 13.002-6.551 26-6.551 26zm248.55 132.773c0 25.152-11.788 48.489-32.341 64.027-2.523 1.907-4.005 4.887-4.005 8.049v21.737h-88.736v-16.59c0-3.101-1.425-6.029-3.865-7.941-6.646-5.209-28.68-24.853-33.778-59.337l-7.927-87.802c-.011-.124-.025-.248-.04-.372-1.006-7.87 3.048-13.323 12.049-16.21 3.297-.794 6.337-.432 8.335.132v72.301c0 5.573 4.518 10.091 10.091 10.091s10.091-4.518 10.091-10.091v-147.727c0-10.372 17.023-10.504 17.023 0v106.94c0 5.6 4.75 10.215 10.338 10.078 5.588.137 10.338-4.477 10.338-10.078v-127.848c0-4.882 3.181-11.21 8.855-10.93 5.308.261 8.168 6.253 8.168 10.93v127.848c0 5.6 4.75 10.215 10.338 10.078 5.588.137 10.338-4.477 10.338-10.078v-106.94c0-10.372 17.023-10.504 17.023 0v106.94c0 10.215 14.111 13.787 18.973 4.79 1.074-1.604 1.703-3.532 1.703-5.608v-88.182c0-10.228 17.033-10.353 17.033 0v151.793zm103.113-205.344c1.01 8.361 2.679 37.701-17.91 65.618l-65.022 69.287v-31.973c.56-.366 33.446-32.825 33.446-32.825 3.96-3.921 3.992-10.31.071-14.27-3.92-3.959-10.309-3.993-14.27-.071l-19.247 19.055v-21.269c0-7.558-3.024-14.652-8.536-19.999-5.414-5.219-12.574-8.093-20.161-8.093-3.614 0-7.071.664-10.26 1.863-1.366-4.4-3.823-8.421-7.232-11.737-5.4-5.287-12.576-8.198-20.207-8.198-3.332 0-6.531.568-9.509 1.599-.149-.866-.32-1.726-.536-2.567-1.87-7.402-6.162-13.563-11.785-17.619l30.989-30.989c17.776-17.783 42.611-25.95 68.133-22.405 3.131.437 6.287-.624 8.523-2.86l15.372-15.372 62.75 62.75-11.729 11.731c-2.19 2.191-3.252 5.267-2.88 8.344zm28.879-34.347-62.748-62.748 13.917-13.917 62.743 62.751z"/><circle cx="259.871" cy="493.32" r="10"/></g></g></svg>